<svg width="414" height="24" viewBox="0 0 414 24" fill="none" xmlns="http://www.w3.org/2000/svg">
<g clip-path="url(#clip0_571_307)">
<rect x="173" width="68" height="24" rx="6" fill="white"/>
<path d="M174.278 6.36364H176.409L180.114 15.4091H180.25L183.955 6.36364H186.085V18H184.415V9.57955H184.307L180.875 17.983H179.489L176.057 9.57386H175.949V18H174.278V6.36364ZM192.178 18.1761C191.359 18.1761 190.645 17.9886 190.036 17.6136C189.426 17.2386 188.952 16.714 188.615 16.0398C188.278 15.3655 188.109 14.5777 188.109 13.6761C188.109 12.7708 188.278 11.9792 188.615 11.3011C188.952 10.6231 189.426 10.0966 190.036 9.72159C190.645 9.34659 191.359 9.15909 192.178 9.15909C192.996 9.15909 193.71 9.34659 194.32 9.72159C194.929 10.0966 195.403 10.6231 195.74 11.3011C196.077 11.9792 196.246 12.7708 196.246 13.6761C196.246 14.5777 196.077 15.3655 195.74 16.0398C195.403 16.714 194.929 17.2386 194.32 17.6136C193.71 17.9886 192.996 18.1761 192.178 18.1761ZM192.183 16.75C192.714 16.75 193.153 16.6098 193.501 16.3295C193.85 16.0492 194.107 15.6761 194.274 15.2102C194.445 14.7443 194.53 14.2311 194.53 13.6705C194.53 13.1136 194.445 12.6023 194.274 12.1364C194.107 11.6667 193.85 11.2898 193.501 11.0057C193.153 10.7216 192.714 10.5795 192.183 10.5795C191.649 10.5795 191.206 10.7216 190.854 11.0057C190.505 11.2898 190.246 11.6667 190.075 12.1364C189.909 12.6023 189.825 13.1136 189.825 13.6705C189.825 14.2311 189.909 14.7443 190.075 15.2102C190.246 15.6761 190.505 16.0492 190.854 16.3295C191.206 16.6098 191.649 16.75 192.183 16.75ZM198.142 18V9.27273H199.784V10.6591H199.875C200.034 10.1894 200.314 9.82008 200.716 9.55114C201.121 9.27841 201.58 9.14205 202.091 9.14205C202.197 9.14205 202.322 9.14583 202.466 9.15341C202.614 9.16098 202.729 9.17045 202.813 9.18182V10.8068C202.744 10.7879 202.623 10.767 202.449 10.7443C202.275 10.7178 202.1 10.7045 201.926 10.7045C201.525 10.7045 201.167 10.7898 200.852 10.9602C200.542 11.1269 200.295 11.3598 200.114 11.6591C199.932 11.9545 199.841 12.2917 199.841 12.6705V18H198.142ZM207.732 18.1761C206.872 18.1761 206.131 17.9924 205.51 17.625C204.893 17.2538 204.415 16.733 204.078 16.0625C203.745 15.3883 203.578 14.5985 203.578 13.6932C203.578 12.7992 203.745 12.0114 204.078 11.3295C204.415 10.6477 204.885 10.1155 205.487 9.73295C206.093 9.35038 206.802 9.15909 207.612 9.15909C208.105 9.15909 208.582 9.24053 209.044 9.40341C209.506 9.56629 209.921 9.82197 210.288 10.1705C210.656 10.5189 210.946 10.9716 211.158 11.5284C211.37 12.0814 211.476 12.7538 211.476 13.5455V14.1477H204.538V12.875H209.811C209.811 12.428 209.72 12.0322 209.538 11.6875C209.357 11.339 209.101 11.0644 208.771 10.8636C208.446 10.6629 208.063 10.5625 207.624 10.5625C207.146 10.5625 206.73 10.6799 206.374 10.9148C206.021 11.1458 205.749 11.4489 205.555 11.8239C205.366 12.1951 205.271 12.5985 205.271 13.0341V14.0284C205.271 14.6117 205.374 15.108 205.578 15.517C205.786 15.9261 206.076 16.2386 206.447 16.4545C206.819 16.6667 207.252 16.7727 207.749 16.7727C208.071 16.7727 208.364 16.7273 208.629 16.6364C208.894 16.5417 209.124 16.4015 209.317 16.2159C209.51 16.0303 209.658 15.8011 209.76 15.5284L211.368 15.8182C211.239 16.2917 211.008 16.7064 210.675 17.0625C210.345 17.4148 209.93 17.6894 209.43 17.8864C208.934 18.0795 208.368 18.1761 207.732 18.1761Z" fill="#6B7280"/>
<path fill-rule="evenodd" clip-rule="evenodd" d="M226.293 9.29289C226.683 8.90237 227.317 8.90237 227.707 9.29289L231 12.5858L234.293 9.29289C234.683 8.90237 235.317 8.90237 235.707 9.29289C236.098 9.68342 236.098 10.3166 235.707 10.7071L231.707 14.7071C231.317 15.0976 230.683 15.0976 230.293 14.7071L226.293 10.7071C225.902 10.3166 225.902 9.68342 226.293 9.29289Z" fill="#9CA3AF"/>
</g>
<defs>
<clipPath id="clip0_571_307">
<rect x="173" width="68" height="24" rx="6" fill="white"/>
</clipPath>
</defs>
</svg>
