<svg width="448" height="24" viewBox="0 0 448 24" fill="none" xmlns="http://www.w3.org/2000/svg">
<g clip-path="url(#clip0_1_962)">
<rect x="174" width="100" height="24" rx="6" fill="white"/>
<path d="M181.625 9.42045C181.564 8.88258 181.314 8.46591 180.875 8.17045C180.436 7.87121 179.883 7.72159 179.216 7.72159C178.739 7.72159 178.326 7.79735 177.977 7.94886C177.629 8.09659 177.358 8.30114 177.165 8.5625C176.975 8.82008 176.881 9.11364 176.881 9.44318C176.881 9.7197 176.945 9.95833 177.074 10.1591C177.206 10.3598 177.379 10.5284 177.591 10.6648C177.807 10.7973 178.038 10.9091 178.284 11C178.53 11.0871 178.767 11.1591 178.994 11.2159L180.131 11.5114C180.502 11.6023 180.883 11.7254 181.273 11.8807C181.663 12.036 182.025 12.2405 182.358 12.4943C182.691 12.7481 182.96 13.0625 183.165 13.4375C183.373 13.8125 183.477 14.2614 183.477 14.7841C183.477 15.4432 183.307 16.0284 182.966 16.5398C182.629 17.0511 182.138 17.4545 181.494 17.75C180.854 18.0455 180.08 18.1932 179.17 18.1932C178.299 18.1932 177.545 18.0549 176.909 17.7784C176.273 17.5019 175.775 17.1098 175.415 16.6023C175.055 16.0909 174.856 15.4848 174.818 14.7841H176.58C176.614 15.2045 176.75 15.5549 176.989 15.8352C177.231 16.1117 177.54 16.3182 177.915 16.4545C178.294 16.5871 178.708 16.6534 179.159 16.6534C179.655 16.6534 180.097 16.5758 180.483 16.4205C180.873 16.2614 181.18 16.0417 181.403 15.7614C181.627 15.4773 181.739 15.1458 181.739 14.767C181.739 14.4223 181.64 14.1402 181.443 13.9205C181.25 13.7008 180.987 13.5189 180.653 13.375C180.324 13.2311 179.951 13.1042 179.534 12.9943L178.159 12.6193C177.227 12.3655 176.489 11.9924 175.943 11.5C175.402 11.0076 175.131 10.3561 175.131 9.54545C175.131 8.875 175.313 8.28977 175.676 7.78977C176.04 7.28977 176.532 6.90151 177.153 6.625C177.775 6.3447 178.475 6.20455 179.256 6.20455C180.044 6.20455 180.739 6.3428 181.341 6.61932C181.947 6.89583 182.424 7.27652 182.773 7.76136C183.121 8.24242 183.303 8.79545 183.318 9.42045H181.625ZM189.115 18.1761C188.297 18.1761 187.583 17.9886 186.973 17.6136C186.363 17.2386 185.89 16.714 185.553 16.0398C185.215 15.3655 185.047 14.5777 185.047 13.6761C185.047 12.7708 185.215 11.9792 185.553 11.3011C185.89 10.6231 186.363 10.0966 186.973 9.72159C187.583 9.34659 188.297 9.15909 189.115 9.15909C189.933 9.15909 190.647 9.34659 191.257 9.72159C191.867 10.0966 192.34 10.6231 192.678 11.3011C193.015 11.9792 193.183 12.7708 193.183 13.6761C193.183 14.5777 193.015 15.3655 192.678 16.0398C192.34 16.714 191.867 17.2386 191.257 17.6136C190.647 17.9886 189.933 18.1761 189.115 18.1761ZM189.121 16.75C189.651 16.75 190.09 16.6098 190.439 16.3295C190.787 16.0492 191.045 15.6761 191.212 15.2102C191.382 14.7443 191.467 14.2311 191.467 13.6705C191.467 13.1136 191.382 12.6023 191.212 12.1364C191.045 11.6667 190.787 11.2898 190.439 11.0057C190.09 10.7216 189.651 10.5795 189.121 10.5795C188.587 10.5795 188.143 10.7216 187.791 11.0057C187.443 11.2898 187.183 11.6667 187.013 12.1364C186.846 12.6023 186.763 13.1136 186.763 13.6705C186.763 14.2311 186.846 14.7443 187.013 15.2102C187.183 15.6761 187.443 16.0492 187.791 16.3295C188.143 16.6098 188.587 16.75 189.121 16.75ZM196.778 6.36364V18H195.08V6.36364H196.778ZM204.592 14.3807V9.27273H206.297V18H204.626V16.4886H204.536C204.335 16.9545 204.013 17.3428 203.57 17.6534C203.13 17.9602 202.583 18.1136 201.928 18.1136C201.367 18.1136 200.871 17.9905 200.439 17.7443C200.011 17.4943 199.674 17.125 199.428 16.6364C199.185 16.1477 199.064 15.5436 199.064 14.8239V9.27273H200.763V14.6193C200.763 15.214 200.928 15.6875 201.257 16.0398C201.587 16.392 202.015 16.5682 202.541 16.5682C202.859 16.5682 203.176 16.4886 203.49 16.3295C203.808 16.1705 204.072 15.9299 204.28 15.608C204.492 15.286 204.596 14.8769 204.592 14.3807ZM212.653 9.27273V10.6364H207.886V9.27273H212.653ZM209.165 7.18182H210.864V15.4375C210.864 15.767 210.913 16.0152 211.011 16.1818C211.11 16.3447 211.237 16.4564 211.392 16.517C211.551 16.5739 211.724 16.6023 211.909 16.6023C212.045 16.6023 212.165 16.5928 212.267 16.5739C212.369 16.5549 212.449 16.5398 212.506 16.5284L212.813 17.9318C212.714 17.9697 212.574 18.0076 212.392 18.0455C212.21 18.0871 211.983 18.1098 211.71 18.1136C211.263 18.1212 210.847 18.0417 210.46 17.875C210.074 17.7083 209.761 17.4508 209.523 17.1023C209.284 16.7538 209.165 16.3163 209.165 15.7898V7.18182ZM214.533 18V9.27273H216.232V18H214.533ZM215.391 7.92614C215.095 7.92614 214.841 7.82765 214.629 7.63068C214.421 7.42992 214.317 7.19129 214.317 6.91477C214.317 6.63447 214.421 6.39583 214.629 6.19886C214.841 5.99811 215.095 5.89773 215.391 5.89773C215.686 5.89773 215.938 5.99811 216.146 6.19886C216.358 6.39583 216.465 6.63447 216.465 6.91477C216.465 7.19129 216.358 7.42992 216.146 7.63068C215.938 7.82765 215.686 7.92614 215.391 7.92614ZM222.193 18.1761C221.375 18.1761 220.661 17.9886 220.051 17.6136C219.441 17.2386 218.968 16.714 218.631 16.0398C218.294 15.3655 218.125 14.5777 218.125 13.6761C218.125 12.7708 218.294 11.9792 218.631 11.3011C218.968 10.6231 219.441 10.0966 220.051 9.72159C220.661 9.34659 221.375 9.15909 222.193 9.15909C223.011 9.15909 223.725 9.34659 224.335 9.72159C224.945 10.0966 225.419 10.6231 225.756 11.3011C226.093 11.9792 226.261 12.7708 226.261 13.6761C226.261 14.5777 226.093 15.3655 225.756 16.0398C225.419 16.714 224.945 17.2386 224.335 17.6136C223.725 17.9886 223.011 18.1761 222.193 18.1761ZM222.199 16.75C222.729 16.75 223.169 16.6098 223.517 16.3295C223.866 16.0492 224.123 15.6761 224.29 15.2102C224.46 14.7443 224.545 14.2311 224.545 13.6705C224.545 13.1136 224.46 12.6023 224.29 12.1364C224.123 11.6667 223.866 11.2898 223.517 11.0057C223.169 10.7216 222.729 10.5795 222.199 10.5795C221.665 10.5795 221.222 10.7216 220.869 11.0057C220.521 11.2898 220.261 11.6667 220.091 12.1364C219.924 12.6023 219.841 13.1136 219.841 13.6705C219.841 14.2311 219.924 14.7443 220.091 15.2102C220.261 15.6761 220.521 16.0492 220.869 16.3295C221.222 16.6098 221.665 16.75 222.199 16.75ZM229.857 12.8182V18H228.158V9.27273H229.788V10.6932H229.896C230.097 10.2311 230.411 9.85985 230.84 9.57955C231.271 9.29924 231.815 9.15909 232.47 9.15909C233.065 9.15909 233.586 9.28409 234.033 9.53409C234.48 9.7803 234.826 10.1477 235.072 10.6364C235.319 11.125 235.442 11.7292 235.442 12.4489V18H233.743V12.6534C233.743 12.0208 233.578 11.5265 233.249 11.1705C232.919 10.8106 232.466 10.6307 231.891 10.6307C231.497 10.6307 231.146 10.7159 230.84 10.8864C230.536 11.0568 230.296 11.3068 230.118 11.6364C229.944 11.9621 229.857 12.3561 229.857 12.8182ZM244.26 11.4034L242.72 11.6761C242.656 11.4792 242.554 11.2917 242.413 11.1136C242.277 10.9356 242.091 10.7898 241.857 10.6761C241.622 10.5625 241.328 10.5057 240.976 10.5057C240.495 10.5057 240.093 10.6136 239.771 10.8295C239.449 11.0417 239.288 11.3163 239.288 11.6534C239.288 11.9451 239.396 12.1799 239.612 12.358C239.828 12.536 240.177 12.6818 240.658 12.7955L242.044 13.1136C242.847 13.2992 243.446 13.5852 243.84 13.9716C244.233 14.358 244.43 14.8598 244.43 15.4773C244.43 16 244.279 16.4659 243.976 16.875C243.677 17.2803 243.258 17.5985 242.72 17.8295C242.186 18.0606 241.567 18.1761 240.862 18.1761C239.885 18.1761 239.088 17.9678 238.47 17.5511C237.853 17.1307 237.474 16.5341 237.334 15.7614L238.976 15.5114C239.078 15.9394 239.288 16.2633 239.607 16.483C239.925 16.6989 240.34 16.8068 240.851 16.8068C241.408 16.8068 241.853 16.6913 242.186 16.4602C242.519 16.2254 242.686 15.9394 242.686 15.6023C242.686 15.3295 242.584 15.1004 242.379 14.9148C242.179 14.7292 241.87 14.589 241.453 14.4943L239.976 14.1705C239.161 13.9848 238.559 13.6894 238.169 13.2841C237.783 12.8788 237.59 12.3655 237.59 11.7443C237.59 11.2292 237.733 10.7784 238.021 10.392C238.309 10.0057 238.707 9.70455 239.215 9.48864C239.722 9.26894 240.304 9.15909 240.959 9.15909C241.902 9.15909 242.644 9.36364 243.186 9.77273C243.728 10.178 244.086 10.7216 244.26 11.4034Z" fill="#6B7280"/>
<path fill-rule="evenodd" clip-rule="evenodd" d="M259.293 9.29289C259.683 8.90237 260.317 8.90237 260.707 9.29289L264 12.5858L267.293 9.29289C267.683 8.90237 268.317 8.90237 268.707 9.29289C269.098 9.68342 269.098 10.3166 268.707 10.7071L264.707 14.7071C264.317 15.0976 263.683 15.0976 263.293 14.7071L259.293 10.7071C258.902 10.3166 258.902 9.68342 259.293 9.29289Z" fill="#9CA3AF"/>
</g>
<defs>
<clipPath id="clip0_1_962">
<rect x="174" width="100" height="24" rx="6" fill="white"/>
</clipPath>
</defs>
</svg>
