<svg width="1480" height="100" viewBox="0 0 1480 100" fill="none" xmlns="http://www.w3.org/2000/svg">
<g filter="url(#filter0_i_96_413)">
<rect width="1480" height="100" fill="white"/>
<path d="M657.58 48H656.523C656.46 47.696 656.351 47.429 656.195 47.1989C656.041 46.9688 655.854 46.7756 655.632 46.6193C655.413 46.4602 655.17 46.3409 654.903 46.2614C654.636 46.1818 654.358 46.142 654.068 46.142C653.54 46.142 653.061 46.2756 652.632 46.5426C652.206 46.8097 651.866 47.2031 651.614 47.723C651.364 48.2429 651.239 48.8807 651.239 49.6364C651.239 50.392 651.364 51.0298 651.614 51.5497C651.866 52.0696 652.206 52.4631 652.632 52.7301C653.061 52.9972 653.54 53.1307 654.068 53.1307C654.358 53.1307 654.636 53.0909 654.903 53.0114C655.17 52.9318 655.413 52.8139 655.632 52.6577C655.854 52.4986 656.041 52.304 656.195 52.0739C656.351 51.8409 656.46 51.5739 656.523 51.2727H657.58C657.5 51.7187 657.355 52.1179 657.145 52.4702C656.935 52.8224 656.673 53.1222 656.361 53.3693C656.048 53.6136 655.697 53.7997 655.308 53.9276C654.922 54.0554 654.509 54.1193 654.068 54.1193C653.324 54.1193 652.662 53.9375 652.082 53.5739C651.503 53.2102 651.047 52.6932 650.714 52.0227C650.382 51.3523 650.216 50.5568 650.216 49.6364C650.216 48.7159 650.382 47.9205 650.714 47.25C651.047 46.5795 651.503 46.0625 652.082 45.6989C652.662 45.3352 653.324 45.1534 654.068 45.1534C654.509 45.1534 654.922 45.2173 655.308 45.3452C655.697 45.473 656.048 45.6605 656.361 45.9077C656.673 46.152 656.935 46.4503 657.145 46.8026C657.355 47.152 657.5 47.5511 657.58 48ZM661.81 54.1364C661.219 54.1364 660.701 53.9957 660.255 53.7145C659.811 53.4332 659.465 53.0398 659.215 52.5341C658.968 52.0284 658.844 51.4375 658.844 50.7614C658.844 50.0795 658.968 49.4844 659.215 48.9759C659.465 48.4673 659.811 48.0724 660.255 47.7912C660.701 47.5099 661.219 47.3693 661.81 47.3693C662.401 47.3693 662.918 47.5099 663.361 47.7912C663.807 48.0724 664.154 48.4673 664.401 48.9759C664.651 49.4844 664.776 50.0795 664.776 50.7614C664.776 51.4375 664.651 52.0284 664.401 52.5341C664.154 53.0398 663.807 53.4332 663.361 53.7145C662.918 53.9957 662.401 54.1364 661.81 54.1364ZM661.81 53.233C662.259 53.233 662.628 53.1179 662.918 52.8878C663.208 52.6577 663.422 52.3551 663.561 51.9801C663.701 51.6051 663.77 51.1989 663.77 50.7614C663.77 50.3239 663.701 49.9162 663.561 49.5384C663.422 49.1605 663.208 48.8551 662.918 48.6222C662.628 48.3892 662.259 48.2727 661.81 48.2727C661.361 48.2727 660.992 48.3892 660.702 48.6222C660.412 48.8551 660.198 49.1605 660.059 49.5384C659.919 49.9162 659.85 50.3239 659.85 50.7614C659.85 51.1989 659.919 51.6051 660.059 51.9801C660.198 52.3551 660.412 52.6577 660.702 52.8878C660.992 53.1179 661.361 53.233 661.81 53.233ZM666.311 56.4545V47.4545H667.283V48.4943H667.402C667.476 48.3807 667.578 48.2358 667.709 48.0597C667.842 47.8807 668.033 47.7216 668.28 47.5824C668.53 47.4403 668.868 47.3693 669.294 47.3693C669.845 47.3693 670.331 47.5071 670.751 47.7827C671.172 48.0582 671.5 48.4489 671.736 48.9545C671.972 49.4602 672.089 50.0568 672.089 50.7443C672.089 51.4375 671.972 52.0384 671.736 52.5469C671.5 53.0526 671.173 53.4446 670.756 53.723C670.338 53.9986 669.857 54.1364 669.311 54.1364C668.891 54.1364 668.554 54.0668 668.301 53.9276C668.048 53.7855 667.854 53.625 667.717 53.446C667.581 53.2642 667.476 53.1136 667.402 52.9943H667.317V56.4545H666.311ZM667.3 50.7273C667.3 51.2216 667.372 51.6577 667.517 52.0355C667.662 52.4105 667.874 52.7045 668.152 52.9176C668.43 53.1278 668.771 53.233 669.175 53.233C669.595 53.233 669.946 53.1222 670.227 52.9006C670.511 52.6761 670.724 52.375 670.866 51.9972C671.011 51.6165 671.084 51.1932 671.084 50.7273C671.084 50.267 671.013 49.8523 670.871 49.483C670.732 49.1108 670.52 48.8168 670.236 48.6009C669.955 48.3821 669.601 48.2727 669.175 48.2727C668.766 48.2727 668.422 48.3764 668.143 48.5838C667.865 48.7884 667.655 49.0753 667.513 49.4446C667.371 49.8111 667.3 50.2386 667.3 50.7273ZM674.037 56.4545C673.866 56.4545 673.714 56.4403 673.581 56.4119C673.447 56.3864 673.355 56.3608 673.304 56.3352L673.56 55.4489C673.804 55.5114 674.02 55.5341 674.207 55.517C674.395 55.5 674.561 55.4162 674.706 55.2656C674.854 55.1179 674.989 54.8778 675.111 54.5455L675.298 54.0341L672.878 47.4545H673.969L675.776 52.6705H675.844L677.651 47.4545H678.741L675.963 54.9545C675.838 55.2926 675.683 55.5724 675.499 55.794C675.314 56.0185 675.099 56.1847 674.855 56.2926C674.614 56.4006 674.341 56.4545 674.037 56.4545ZM680.069 54V47.4545H681.04V48.4432H681.109C681.228 48.1193 681.444 47.8565 681.756 47.6548C682.069 47.4531 682.421 47.3523 682.813 47.3523C682.887 47.3523 682.979 47.3537 683.09 47.3565C683.201 47.3594 683.285 47.3636 683.342 47.3693V48.392C683.308 48.3835 683.229 48.3707 683.107 48.3537C682.988 48.3338 682.862 48.3239 682.728 48.3239C682.41 48.3239 682.126 48.3906 681.876 48.5241C681.629 48.6548 681.433 48.8366 681.288 49.0696C681.146 49.2997 681.075 49.5625 681.075 49.858V54H680.069ZM684.534 54V47.4545H685.539V54H684.534ZM685.045 46.3636C684.849 46.3636 684.68 46.2969 684.538 46.1634C684.399 46.0298 684.329 45.8693 684.329 45.6818C684.329 45.4943 684.399 45.3338 684.538 45.2003C684.68 45.0668 684.849 45 685.045 45C685.241 45 685.409 45.0668 685.548 45.2003C685.69 45.3338 685.761 45.4943 685.761 45.6818C685.761 45.8693 685.69 46.0298 685.548 46.1634C685.409 46.2969 685.241 46.3636 685.045 46.3636ZM690.023 56.5909C689.538 56.5909 689.12 56.5284 688.771 56.4034C688.421 56.2812 688.13 56.1193 687.897 55.9176C687.667 55.7188 687.484 55.5057 687.347 55.2784L688.148 54.7159C688.239 54.8352 688.354 54.9716 688.494 55.125C688.633 55.2812 688.823 55.4162 689.065 55.5298C689.309 55.6463 689.629 55.7045 690.023 55.7045C690.552 55.7045 690.988 55.5767 691.332 55.321C691.675 55.0653 691.847 54.6648 691.847 54.1193V52.7898H691.762C691.688 52.9091 691.583 53.0568 691.447 53.233C691.313 53.4062 691.12 53.5611 690.867 53.6974C690.617 53.831 690.279 53.8977 689.853 53.8977C689.325 53.8977 688.85 53.7727 688.43 53.5227C688.012 53.2727 687.681 52.9091 687.437 52.4318C687.195 51.9545 687.075 51.375 687.075 50.6932C687.075 50.0227 687.192 49.4389 687.428 48.9418C687.664 48.4418 687.992 48.0554 688.413 47.7827C688.833 47.5071 689.319 47.3693 689.87 47.3693C690.296 47.3693 690.634 47.4403 690.884 47.5824C691.137 47.7216 691.33 47.8807 691.464 48.0597C691.6 48.2358 691.705 48.3807 691.779 48.4943H691.881V47.4545H692.853V54.1875C692.853 54.75 692.725 55.2074 692.469 55.5597C692.217 55.9148 691.876 56.1747 691.447 56.3395C691.021 56.5071 690.546 56.5909 690.023 56.5909ZM689.989 52.9943C690.393 52.9943 690.734 52.902 691.012 52.7173C691.29 52.5327 691.502 52.267 691.647 51.9205C691.792 51.5739 691.864 51.1591 691.864 50.6761C691.864 50.2045 691.793 49.7884 691.651 49.4276C691.509 49.0668 691.299 48.7841 691.021 48.5795C690.742 48.375 690.398 48.2727 689.989 48.2727C689.563 48.2727 689.208 48.3807 688.924 48.5966C688.643 48.8125 688.431 49.1023 688.289 49.4659C688.15 49.8295 688.08 50.233 688.08 50.6761C688.08 51.1307 688.151 51.5327 688.293 51.8821C688.438 52.2287 688.651 52.5014 688.933 52.7003C689.217 52.8963 689.569 52.9943 689.989 52.9943ZM695.7 50.0625V54H694.694V45.2727H695.7V48.4773H695.785C695.938 48.1392 696.168 47.8707 696.475 47.6719C696.785 47.4702 697.197 47.3693 697.711 47.3693C698.157 47.3693 698.548 47.4588 698.883 47.6378C699.218 47.8139 699.478 48.0852 699.663 48.4517C699.85 48.8153 699.944 49.2784 699.944 49.8409V54H698.938V49.9091C698.938 49.3892 698.803 48.9872 698.533 48.7031C698.266 48.4162 697.896 48.2727 697.421 48.2727C697.092 48.2727 696.796 48.3423 696.535 48.4815C696.276 48.6207 696.072 48.8239 695.921 49.0909C695.773 49.358 695.7 49.6818 695.7 50.0625ZM704.63 47.4545V48.3068H701.238V47.4545H704.63ZM702.227 45.8864H703.233V52.125C703.233 52.4091 703.274 52.6222 703.356 52.7642C703.441 52.9034 703.549 52.9972 703.68 53.0455C703.814 53.0909 703.954 53.1136 704.102 53.1136C704.213 53.1136 704.304 53.108 704.375 53.0966C704.446 53.0824 704.502 53.071 704.545 53.0625L704.75 53.9659C704.681 53.9915 704.586 54.017 704.464 54.0426C704.342 54.071 704.187 54.0852 704 54.0852C703.716 54.0852 703.437 54.0241 703.164 53.902C702.895 53.7798 702.67 53.5938 702.491 53.3438C702.315 53.0938 702.227 52.7784 702.227 52.3977V45.8864ZM709.501 54V53.233L712.382 50.0795C712.72 49.7102 712.998 49.3892 713.217 49.1165C713.436 48.8409 713.598 48.5824 713.703 48.3409C713.811 48.0966 713.865 47.8409 713.865 47.5739C713.865 47.267 713.791 47.0014 713.643 46.777C713.498 46.5526 713.299 46.3793 713.047 46.2571C712.794 46.1349 712.51 46.0739 712.194 46.0739C711.859 46.0739 711.566 46.1435 711.316 46.2827C711.069 46.419 710.877 46.6108 710.741 46.858C710.608 47.1051 710.541 47.3949 710.541 47.7273H709.535C709.535 47.2159 709.653 46.767 709.889 46.3807C710.125 45.9943 710.446 45.6932 710.852 45.4773C711.261 45.2614 711.72 45.1534 712.228 45.1534C712.74 45.1534 713.193 45.2614 713.588 45.4773C713.983 45.6932 714.292 45.9844 714.517 46.3509C714.741 46.7173 714.853 47.125 714.853 47.5739C714.853 47.8949 714.795 48.2088 714.679 48.5156C714.565 48.8196 714.366 49.1591 714.082 49.5341C713.801 49.9062 713.41 50.3608 712.91 50.8977L710.95 52.9943V53.0625H715.007V54H709.501ZM719.613 54.1193C718.971 54.1193 718.424 53.9446 717.973 53.5952C717.521 53.2429 717.176 52.733 716.937 52.0653C716.699 51.3949 716.579 50.5852 716.579 49.6364C716.579 48.6932 716.699 47.8878 716.937 47.2202C717.179 46.5497 717.525 46.0384 717.977 45.6861C718.431 45.331 718.977 45.1534 719.613 45.1534C720.25 45.1534 720.794 45.331 721.245 45.6861C721.7 46.0384 722.047 46.5497 722.285 47.2202C722.527 47.8878 722.647 48.6932 722.647 49.6364C722.647 50.5852 722.528 51.3949 722.289 52.0653C722.051 52.733 721.706 53.2429 721.254 53.5952C720.802 53.9446 720.255 54.1193 719.613 54.1193ZM719.613 53.1818C720.25 53.1818 720.744 52.875 721.096 52.2614C721.449 51.6477 721.625 50.7727 721.625 49.6364C721.625 48.8807 721.544 48.2372 721.382 47.706C721.223 47.1747 720.993 46.7699 720.691 46.4915C720.393 46.2131 720.034 46.0739 719.613 46.0739C718.983 46.0739 718.49 46.3849 718.135 47.0071C717.779 47.6264 717.602 48.5028 717.602 49.6364C717.602 50.392 717.681 51.0341 717.841 51.5625C718 52.0909 718.228 52.4929 718.527 52.7685C718.828 53.044 719.19 53.1818 719.613 53.1818ZM724.267 54V53.233L727.147 50.0795C727.485 49.7102 727.764 49.3892 727.983 49.1165C728.201 48.8409 728.363 48.5824 728.468 48.3409C728.576 48.0966 728.63 47.8409 728.63 47.5739C728.63 47.267 728.556 47.0014 728.409 46.777C728.264 46.5526 728.065 46.3793 727.812 46.2571C727.559 46.1349 727.275 46.0739 726.96 46.0739C726.625 46.0739 726.332 46.1435 726.082 46.2827C725.835 46.419 725.643 46.6108 725.507 46.858C725.373 47.1051 725.306 47.3949 725.306 47.7273H724.301C724.301 47.2159 724.419 46.767 724.654 46.3807C724.89 45.9943 725.211 45.6932 725.618 45.4773C726.027 45.2614 726.485 45.1534 726.994 45.1534C727.505 45.1534 727.958 45.2614 728.353 45.4773C728.748 45.6932 729.058 45.9844 729.282 46.3509C729.507 46.7173 729.619 47.125 729.619 47.5739C729.619 47.8949 729.561 48.2088 729.444 48.5156C729.331 48.8196 729.132 49.1591 728.848 49.5341C728.566 49.9062 728.176 50.3608 727.676 50.8977L725.716 52.9943V53.0625H729.772V54H724.267ZM734.6 45.2727V54H733.544V46.3807H733.493L731.362 47.7955V46.7216L733.544 45.2727H734.6ZM744.252 49.1676V50.1051H740.434V49.1676H744.252ZM749.533 54V45.2727H754.8V46.2102H750.59V49.1591H754.528V50.0966H750.59V53.0625H754.869V54H749.533ZM757.575 45.2727V54H756.569V45.2727H757.575ZM759.417 54V47.4545H760.422V54H759.417ZM759.928 46.3636C759.732 46.3636 759.563 46.2969 759.421 46.1634C759.282 46.0298 759.212 45.8693 759.212 45.6818C759.212 45.4943 759.282 45.3338 759.421 45.2003C759.563 45.0668 759.732 45 759.928 45C760.124 45 760.292 45.0668 760.431 45.2003C760.573 45.3338 760.644 45.4943 760.644 45.6818C760.644 45.8693 760.573 46.0298 760.431 46.1634C760.292 46.2969 760.124 46.3636 759.928 46.3636ZM763.202 51.6136L763.185 50.3693H763.389L766.253 47.4545H767.497L764.446 50.5398H764.361L763.202 51.6136ZM762.264 54V45.2727H763.27V54H762.264ZM766.423 54L763.866 50.7614L764.582 50.0625L767.702 54H766.423ZM771.266 54.1364C770.636 54.1364 770.092 53.9972 769.634 53.7188C769.18 53.4375 768.829 53.0455 768.582 52.5426C768.337 52.0369 768.215 51.4489 768.215 50.7784C768.215 50.108 768.337 49.517 768.582 49.0057C768.829 48.4915 769.173 48.0909 769.613 47.804C770.056 47.5142 770.573 47.3693 771.164 47.3693C771.505 47.3693 771.842 47.4261 772.174 47.5398C772.506 47.6534 772.809 47.8381 773.082 48.0938C773.354 48.3466 773.572 48.6818 773.734 49.0994C773.896 49.517 773.977 50.0312 773.977 50.642V51.0682H768.931V50.1989H772.954C772.954 49.8295 772.88 49.5 772.732 49.2102C772.587 48.9205 772.38 48.6918 772.11 48.5241C771.843 48.3565 771.528 48.2727 771.164 48.2727C770.763 48.2727 770.417 48.3722 770.124 48.571C769.835 48.767 769.612 49.0227 769.455 49.3381C769.299 49.6534 769.221 49.9915 769.221 50.3523V50.9318C769.221 51.4261 769.306 51.8452 769.477 52.1889C769.65 52.5298 769.89 52.7898 770.197 52.9688C770.504 53.1449 770.86 53.233 771.266 53.233C771.531 53.233 771.769 53.196 771.982 53.1222C772.198 53.0455 772.384 52.9318 772.54 52.7812C772.697 52.6278 772.817 52.4375 772.903 52.2102L773.874 52.483C773.772 52.8125 773.6 53.1023 773.359 53.3523C773.117 53.5994 772.819 53.7926 772.464 53.9318C772.109 54.0682 771.71 54.1364 771.266 54.1364ZM775.506 54V47.4545H776.478V48.4773H776.563C776.7 48.1278 776.92 47.8565 777.224 47.6634C777.528 47.4673 777.893 47.3693 778.319 47.3693C778.751 47.3693 779.11 47.4673 779.397 47.6634C779.687 47.8565 779.913 48.1278 780.075 48.4773H780.143C780.31 48.1392 780.562 47.8707 780.897 47.6719C781.232 47.4702 781.634 47.3693 782.103 47.3693C782.688 47.3693 783.167 47.5526 783.539 47.919C783.911 48.2827 784.097 48.8494 784.097 49.6193V54H783.092V49.6193C783.092 49.1364 782.96 48.7912 782.695 48.5838C782.431 48.3764 782.12 48.2727 781.762 48.2727C781.302 48.2727 780.945 48.4119 780.692 48.6903C780.44 48.9659 780.313 49.3153 780.313 49.7386V54H779.29V49.517C779.29 49.1449 779.17 48.8452 778.928 48.6179C778.687 48.3878 778.376 48.2727 777.995 48.2727C777.734 48.2727 777.489 48.3423 777.262 48.4815C777.038 48.6207 776.856 48.8139 776.717 49.0611C776.58 49.3054 776.512 49.5881 776.512 49.9091V54H775.506ZM792.141 54H789.447V45.2727H792.26C793.107 45.2727 793.831 45.4474 794.433 45.7969C795.036 46.1435 795.497 46.642 795.818 47.2926C796.139 47.9403 796.3 48.7159 796.3 49.6193C796.3 50.5284 796.138 51.3111 795.814 51.9673C795.49 52.6207 795.018 53.1236 794.399 53.4759C793.78 53.8253 793.027 54 792.141 54ZM790.504 53.0625H792.072C792.794 53.0625 793.392 52.9233 793.866 52.6449C794.341 52.3665 794.695 51.9702 794.928 51.456C795.161 50.9418 795.277 50.3295 795.277 49.6193C795.277 48.9148 795.162 48.3082 794.932 47.7997C794.702 47.2884 794.358 46.8963 793.901 46.6236C793.443 46.348 792.874 46.2102 792.192 46.2102H790.504V53.0625ZM799.862 54.1534C799.447 54.1534 799.071 54.0753 798.733 53.919C798.395 53.7599 798.126 53.5312 797.928 53.233C797.729 52.9318 797.629 52.5682 797.629 52.142C797.629 51.767 797.703 51.4631 797.851 51.2301C797.999 50.9943 798.196 50.8097 798.443 50.6761C798.69 50.5426 798.963 50.4432 799.261 50.3778C799.563 50.3097 799.865 50.2557 800.169 50.2159C800.567 50.1648 800.889 50.1264 801.136 50.1009C801.386 50.0724 801.568 50.0256 801.682 49.9602C801.798 49.8949 801.857 49.7812 801.857 49.6193V49.5852C801.857 49.1648 801.741 48.8381 801.511 48.6051C801.284 48.3722 800.939 48.2557 800.476 48.2557C799.996 48.2557 799.619 48.3608 799.347 48.571C799.074 48.7812 798.882 49.0057 798.771 49.2443L797.817 48.9034C797.987 48.5057 798.214 48.196 798.499 47.9744C798.786 47.75 799.098 47.5937 799.436 47.5057C799.777 47.4148 800.112 47.3693 800.442 47.3693C800.652 47.3693 800.893 47.3949 801.166 47.446C801.442 47.4943 801.707 47.5952 801.963 47.7486C802.222 47.902 802.436 48.1335 802.607 48.4432C802.777 48.7528 802.862 49.1676 802.862 49.6875V54H801.857V53.1136H801.805C801.737 53.2557 801.624 53.4077 801.464 53.5696C801.305 53.7315 801.094 53.8693 800.83 53.983C800.565 54.0966 800.243 54.1534 799.862 54.1534ZM800.016 53.25C800.413 53.25 800.749 53.1719 801.021 53.0156C801.297 52.8594 801.504 52.6577 801.643 52.4105C801.786 52.1634 801.857 51.9034 801.857 51.6307V50.7102C801.814 50.7614 801.72 50.8082 801.575 50.8509C801.433 50.8906 801.268 50.9261 801.081 50.9574C800.896 50.9858 800.716 51.0114 800.54 51.0341C800.366 51.054 800.226 51.071 800.118 51.0852C799.857 51.1193 799.612 51.1747 799.385 51.2514C799.161 51.3253 798.979 51.4375 798.839 51.5881C798.703 51.7358 798.635 51.9375 798.635 52.1932C798.635 52.5426 798.764 52.8068 799.023 52.9858C799.284 53.1619 799.615 53.25 800.016 53.25ZM805.703 50.0625V54H804.698V47.4545H805.669V48.4773H805.755C805.908 48.1449 806.141 47.8778 806.453 47.6761C806.766 47.4716 807.169 47.3693 807.664 47.3693C808.107 47.3693 808.495 47.4602 808.827 47.642C809.159 47.821 809.418 48.0938 809.603 48.4602C809.787 48.8239 809.88 49.2841 809.88 49.8409V54H808.874V49.9091C808.874 49.3949 808.74 48.9943 808.473 48.7074C808.206 48.4176 807.84 48.2727 807.374 48.2727C807.053 48.2727 806.766 48.3423 806.513 48.4815C806.263 48.6207 806.066 48.8239 805.921 49.0909C805.776 49.358 805.703 49.6818 805.703 50.0625ZM811.717 54V47.4545H812.723V54H811.717ZM812.229 46.3636C812.033 46.3636 811.864 46.2969 811.722 46.1634C811.582 46.0298 811.513 45.8693 811.513 45.6818C811.513 45.4943 811.582 45.3338 811.722 45.2003C811.864 45.0668 812.033 45 812.229 45C812.425 45 812.592 45.0668 812.732 45.2003C812.874 45.3338 812.945 45.4943 812.945 45.6818C812.945 45.8693 812.874 46.0298 812.732 46.1634C812.592 46.2969 812.425 46.3636 812.229 46.3636ZM817.309 54.1364C816.679 54.1364 816.135 53.9972 815.677 53.7188C815.223 53.4375 814.872 53.0455 814.625 52.5426C814.38 52.0369 814.258 51.4489 814.258 50.7784C814.258 50.108 814.38 49.517 814.625 49.0057C814.872 48.4915 815.216 48.0909 815.656 47.804C816.099 47.5142 816.616 47.3693 817.207 47.3693C817.548 47.3693 817.885 47.4261 818.217 47.5398C818.549 47.6534 818.852 47.8381 819.125 48.0938C819.397 48.3466 819.615 48.6818 819.777 49.0994C819.939 49.517 820.02 50.0312 820.02 50.642V51.0682H814.974V50.1989H818.997C818.997 49.8295 818.923 49.5 818.775 49.2102C818.63 48.9205 818.423 48.6918 818.153 48.5241C817.886 48.3565 817.571 48.2727 817.207 48.2727C816.806 48.2727 816.46 48.3722 816.167 48.571C815.877 48.767 815.654 49.0227 815.498 49.3381C815.342 49.6534 815.264 49.9915 815.264 50.3523V50.9318C815.264 51.4261 815.349 51.8452 815.52 52.1889C815.693 52.5298 815.933 52.7898 816.24 52.9688C816.547 53.1449 816.903 53.233 817.309 53.233C817.574 53.233 817.812 53.196 818.025 53.1222C818.241 53.0455 818.427 52.9318 818.583 52.7812C818.74 52.6278 818.86 52.4375 818.946 52.2102L819.917 52.483C819.815 52.8125 819.643 53.1023 819.402 53.3523C819.16 53.5994 818.862 53.7926 818.507 53.9318C818.152 54.0682 817.752 54.1364 817.309 54.1364ZM822.555 45.2727V54H821.549V45.2727H822.555ZM829.033 48.9205L828.13 49.1761C828.073 49.0256 827.989 48.8793 827.879 48.7372C827.771 48.5923 827.623 48.473 827.435 48.3793C827.248 48.2855 827.008 48.2386 826.715 48.2386C826.315 48.2386 825.981 48.331 825.714 48.5156C825.45 48.6974 825.317 48.929 825.317 49.2102C825.317 49.4602 825.408 49.6577 825.59 49.8026C825.772 49.9474 826.056 50.0682 826.442 50.1648L827.414 50.4034C827.999 50.5455 828.435 50.7628 828.722 51.0554C829.009 51.3452 829.153 51.7187 829.153 52.1761C829.153 52.5511 829.045 52.8864 828.829 53.1818C828.616 53.4773 828.317 53.7102 827.934 53.8807C827.55 54.0511 827.104 54.1364 826.596 54.1364C825.928 54.1364 825.376 53.9915 824.938 53.7017C824.501 53.4119 824.224 52.9886 824.107 52.4318L825.062 52.1932C825.153 52.5455 825.325 52.8097 825.577 52.9858C825.833 53.1619 826.167 53.25 826.579 53.25C827.048 53.25 827.42 53.1506 827.695 52.9517C827.974 52.75 828.113 52.5085 828.113 52.2273C828.113 52 828.033 51.8097 827.874 51.6562C827.715 51.5 827.471 51.3835 827.141 51.3068L826.05 51.0511C825.451 50.9091 825.011 50.6889 824.729 50.3906C824.451 50.0895 824.312 49.7131 824.312 49.2614C824.312 48.892 824.415 48.5653 824.623 48.2812C824.833 47.9972 825.119 47.7741 825.479 47.6122C825.843 47.4503 826.255 47.3693 826.715 47.3693C827.363 47.3693 827.871 47.5114 828.241 47.7955C828.613 48.0795 828.877 48.4545 829.033 48.9205Z" fill="#1D2939"/>
</g>
<defs>
<filter id="filter0_i_96_413" x="0" y="0" width="1480" height="100" filterUnits="userSpaceOnUse" color-interpolation-filters="sRGB">
<feFlood flood-opacity="0" result="BackgroundImageFix"/>
<feBlend mode="normal" in="SourceGraphic" in2="BackgroundImageFix" result="shape"/>
<feColorMatrix in="SourceAlpha" type="matrix" values="0 0 0 0 0 0 0 0 0 0 0 0 0 0 0 0 0 0 127 0" result="hardAlpha"/>
<feOffset dy="1"/>
<feComposite in2="hardAlpha" operator="arithmetic" k2="-1" k3="1"/>
<feColorMatrix type="matrix" values="0 0 0 0 0.117647 0 0 0 0 0.156863 0 0 0 0 0.203922 0 0 0 0.12 0"/>
<feBlend mode="normal" in2="shape" result="effect1_innerShadow_96_413"/>
</filter>
</defs>
</svg>
